<svg id="Calque_1" data-name="Calque 1" xmlns="http://www.w3.org/2000/svg" viewBox="0 0 123.64 327.37"><defs><style>.cls-1{fill:#573d82;}.cls-2{fill:#ecf0f1;}.cls-3{fill:#8977a7;}.cls-4{fill:#ff3e88;}</style></defs><title>BarreViolette</title><rect class="cls-1" width="123.64" height="327.37" rx="10.63" ry="10.63"/><rect class="cls-2" x="20.48" y="21.81" width="66.43" height="4.25" rx="0.19" ry="0.19"/><rect class="cls-2" x="20.48" y="39.34" width="39.17" height="4.25" rx="0.15" ry="0.15"/><rect class="cls-2" x="20.48" y="56.87" width="53.74" height="4.25" rx="0.17" ry="0.17"/><rect class="cls-3" x="20.48" y="74.4" width="64.21" height="4.25" rx="0.19" ry="0.19"/><rect class="cls-3" x="20.48" y="91.92" width="38.47" height="4.25" rx="0.15" ry="0.15"/><rect class="cls-3" x="20.48" y="109.45" width="26.22" height="4.25" rx="0.12" ry="0.12"/><rect class="cls-3" x="20.48" y="126.98" width="53.74" height="4.25" rx="0.17" ry="0.17"/><rect class="cls-3" x="20.48" y="144.51" width="64.21" height="4.25" rx="0.19" ry="0.19"/><rect class="cls-3" x="20.48" y="162.04" width="38.47" height="4.25" rx="0.15" ry="0.15"/><rect class="cls-3" x="20.48" y="179.57" width="26.22" height="4.25" rx="0.12" ry="0.12"/><rect class="cls-3" x="20.48" y="197.1" width="53.74" height="4.25" rx="0.17" ry="0.17"/><rect class="cls-1" x="96.23" y="0.2" width="27.41" height="327.17"/><rect class="cls-4" x="97.38" y="20.47" width="12.56" height="7.1" rx="3.47" ry="3.47"/></svg>