<svg id="Calque_1" data-name="Calque 1" xmlns="http://www.w3.org/2000/svg" viewBox="0 0 540.03 328.17"><defs><style>.cls-1,.cls-5{fill:none;stroke-miterlimit:10;}.cls-1{stroke:#dfdfdf;stroke-width:2.64px;}.cls-2{fill:#573d82;}.cls-3{fill:#ecf0f1;}.cls-4{fill:#8977a7;}.cls-5{stroke:#727272;stroke-width:1px;}.cls-6{fill:#ff3e88;}</style></defs><title>FondSlack</title><rect class="cls-1" x="141.69" y="290.83" width="375.4" height="22.45" rx="4.67" ry="4.67"/><rect class="cls-2" x="0.5" y="0.3" width="123.64" height="327.37" rx="10.63" ry="10.63"/><rect class="cls-3" x="20.98" y="22.11" width="66.43" height="4.25" rx="0.19" ry="0.19"/><rect class="cls-3" x="20.98" y="39.64" width="39.17" height="4.25" rx="0.15" ry="0.15"/><rect class="cls-3" x="20.98" y="57.17" width="53.74" height="4.25" rx="0.17" ry="0.17"/><rect class="cls-4" x="20.98" y="74.7" width="64.21" height="4.25" rx="0.19" ry="0.19"/><rect class="cls-4" x="20.98" y="92.23" width="38.47" height="4.25" rx="0.15" ry="0.15"/><rect class="cls-4" x="20.98" y="109.76" width="26.22" height="4.25" rx="0.12" ry="0.12"/><rect class="cls-4" x="20.98" y="127.28" width="53.74" height="4.25" rx="0.17" ry="0.17"/><rect class="cls-4" x="20.98" y="144.81" width="64.21" height="4.25" rx="0.19" ry="0.19"/><rect class="cls-4" x="20.98" y="162.34" width="38.47" height="4.25" rx="0.15" ry="0.15"/><rect class="cls-4" x="20.98" y="179.87" width="26.22" height="4.25" rx="0.12" ry="0.12"/><rect class="cls-4" x="20.98" y="197.4" width="53.74" height="4.25" rx="0.17" ry="0.17"/><rect class="cls-2" x="96.73" y="0.5" width="27.41" height="327.17"/><rect class="cls-5" x="0.5" y="0.5" width="539.03" height="327.17" rx="10.35" ry="10.35"/><rect class="cls-6" x="97.88" y="20.77" width="12.56" height="7.1" rx="3.47" ry="3.47"/></svg>