<svg id="Calque_1" data-name="Calque 1" xmlns="http://www.w3.org/2000/svg" viewBox="0 0 79.11 79.11"><defs><style>.cls-1{fill:#ffc586;}.cls-2{fill:#b3b3b3;}.cls-3{fill:#e2e3e6;}.cls-4{fill:#1367a0;}.cls-5{fill:#2d85b4;}.cls-6{fill:#1366a0;}.cls-7{fill:#2d85b5;}.cls-8{fill:#0c0c0c;}.cls-9{fill:#313132;}.cls-10{fill:#882028;}.cls-11{fill:#c11b34;}</style></defs><title>IconRD2D2</title><rect class="cls-1" width="79.11" height="79.11" rx="7.36" ry="7.36"/><path class="cls-2" d="M74.55,59.31A26.69,26.69,0,0,0,47.84,32.79H47.54V64.71h27V59.31Z" transform="translate(-7.99 -9.2)"/><path class="cls-3" d="M47.25,32.79A26.69,26.69,0,0,0,20.54,59.31v5.41h27V32.79H47.25Z" transform="translate(-7.99 -9.2)"/><rect class="cls-4" x="39.55" y="50.33" width="27" height="2.49"/><rect class="cls-5" x="12.55" y="50.33" width="27" height="2.49"/><path class="cls-5" d="M26.15,53.46H23.2a1.6,1.6,0,1,0,0,3.19h2.94A1.6,1.6,0,1,0,26.15,53.46Z" transform="translate(-7.99 -9.2)"/><path class="cls-5" d="M37.63,53.46H34.69a1.6,1.6,0,1,0,0,3.19h2.94A1.6,1.6,0,0,0,37.63,53.46Z" transform="translate(-7.99 -9.2)"/><path class="cls-4" d="M49,53.46H47.54v3.19H49A1.6,1.6,0,1,0,49,53.46Z" transform="translate(-7.99 -9.2)"/><path class="cls-5" d="M46.07,53.46a1.6,1.6,0,0,0,0,3.19h1.47V53.46H46.07Z" transform="translate(-7.99 -9.2)"/><path class="cls-4" d="M60.45,53.46H57.51a1.6,1.6,0,1,0,0,3.19h2.94A1.6,1.6,0,0,0,60.45,53.46Z" transform="translate(-7.99 -9.2)"/><path class="cls-4" d="M71.9,53.46H69a1.6,1.6,0,0,0,0,3.19H71.9A1.6,1.6,0,0,0,71.9,53.46Z" transform="translate(-7.99 -9.2)"/><path class="cls-6" d="M47.84,32.79H47.54V51.47H56.9a2.61,2.61,0,0,0,2.61-2.61V35.47A26.63,26.63,0,0,0,47.84,32.79Z" transform="translate(-7.99 -9.2)"/><path class="cls-7" d="M47.25,32.79a26.63,26.63,0,0,0-11.67,2.68V48.86a2.61,2.61,0,0,0,2.61,2.61h9.36V32.79H47.25Z" transform="translate(-7.99 -9.2)"/><path class="cls-8" d="M47.54,42.13v6.94a6.91,6.91,0,0,0,4.9-2Z" transform="translate(-7.99 -9.2)"/><path class="cls-8" d="M42.64,37.23a6.94,6.94,0,0,0,4.9,11.84V42.13Z" transform="translate(-7.99 -9.2)"/><path class="cls-9" d="M52.45,37.23a6.91,6.91,0,0,0-4.9-2v6.94l4.9,4.9A6.93,6.93,0,0,0,52.45,37.23Z" transform="translate(-7.99 -9.2)"/><path class="cls-9" d="M42.64,37.23l4.9,4.9V35.19A6.91,6.91,0,0,0,42.64,37.23Z" transform="translate(-7.99 -9.2)"/><path class="cls-10" d="M34.82,55.06v0.87a0.86,0.86,0,0,0,.61-0.25Z" transform="translate(-7.99 -9.2)"/><path class="cls-10" d="M34.21,54.44a0.87,0.87,0,0,0,.61,1.48V55.06Z" transform="translate(-7.99 -9.2)"/><path class="cls-11" d="M35.44,54.44a0.86,0.86,0,0,0-.61-0.25v0.87l0.61,0.61A0.87,0.87,0,0,0,35.44,54.44Z" transform="translate(-7.99 -9.2)"/><path class="cls-11" d="M34.21,54.44l0.61,0.61V54.19A0.86,0.86,0,0,0,34.21,54.44Z" transform="translate(-7.99 -9.2)"/></svg>