<svg id="Calque_1" data-name="Calque 1" xmlns="http://www.w3.org/2000/svg" viewBox="0 0 79.56 79.56"><defs><style>.cls-1{fill:#7b95ad;}.cls-2{fill:#4c453f;}.cls-3{fill:#65594d;}.cls-4{fill:#a17c4b;}.cls-5{fill:#d09e7b;}.cls-6{fill:#e6b08c;}.cls-7{fill:none;stroke:#474747;stroke-miterlimit:10;stroke-width:0.36px;}</style></defs><title>IconLuke</title><rect class="cls-1" width="79.56" height="79.56" rx="7.4" ry="7.4"/><path class="cls-2" d="M64.67,51a42.18,42.18,0,0,0-1.24,5.25c-0.31,2.31,1.63,5.75,0,9.26a9.24,9.24,0,0,1-.6,1.12,19.15,19.15,0,0,1-10.26,7.26c7.28-2.06,12.7-7.91,14-9.33A33,33,0,0,0,74.23,51H64.67Z" transform="translate(-8.04 -7)"/><path class="cls-3" d="M32.53,67.05A9.81,9.81,0,0,1,32,65.66c-0.55-2,0-3.18,0-5.43a32.71,32.71,0,0,0-.37-4.34c-0.3-2-.68-2.89-1.07-4.89H21.41C25.52,65,36,73.8,46.2,74.47,38.87,74,33.6,69.33,32.53,67.05Z" transform="translate(-8.04 -7)"/><path class="cls-3" d="M48,34.61c-9,.14-18,3.94-19.27,10.68C28.24,48,29.4,49,30.55,53H48V34.61Z" transform="translate(-8.04 -7)"/><path class="cls-2" d="M64.67,53c1.39-4,3.22-5.48,2.67-8.47C66.14,38,55,34.47,48,34.61V53H64.67Z" transform="translate(-8.04 -7)"/><path d="M32.53,67.05A9.81,9.81,0,0,1,32,65.66c-0.55-2,0-3.18,0-5.43A31.06,31.06,0,0,0,31.62,56c-1.17-7.78-3.65-8.81-3-12.17,1.24-6.33,11.44-10.07,19.18-10.2S66,37,67.25,43.13c0.75,3.8-2.73,5.24-3.82,13.25-0.31,2.31,1.63,5.69,0,9.2a10.25,10.25,0,0,1-.6,1.09,19.21,19.21,0,0,1-15,8C39.65,74.8,33.68,69.49,32.53,67.05Z" transform="translate(-8.04 -7)"/><path class="cls-4" d="M63.09,44.85a14.66,14.66,0,0,0,4.08,1.08,21.81,21.81,0,0,1-7.08.44,16.6,16.6,0,0,0,3,2.86l-3.89-1L60,43.07A14.64,14.64,0,0,0,63.09,44.85Z" transform="translate(-8.04 -7)"/><path class="cls-5" d="M47.82,63.53A12.37,12.37,0,0,0,60.15,51.2V37.38a28.91,28.91,0,0,0-12.33-2.76V63.53Z" transform="translate(-8.04 -7)"/><path class="cls-6" d="M47.52,34.61a29,29,0,0,0-12,3v0.16a28.91,28.91,0,0,1,12.32-3.12H47.52Z" transform="translate(-8.04 -7)"/><path class="cls-4" d="M34.28,41.39l1.18,5.68a12.93,12.93,0,0,1-5.19,1.87,14.09,14.09,0,0,0,5.93.3l0.34,2.49a20.9,20.9,0,0,1-4.69,3.32l4.95-.85,0.43,2.1-3.1.78,3.56,0.08L38.06,40Z" transform="translate(-8.04 -7)"/><path class="cls-6" d="M47.82,63.53V34.61h0a28.91,28.91,0,0,0-12.32,3.12V51.2A12.37,12.37,0,0,0,47.82,63.53Z" transform="translate(-8.04 -7)"/><path class="cls-4" d="M62.94,37.74a7.5,7.5,0,0,0-2.36-4.51c-5-4.75-16.18-4.65-22-.58A9.8,9.8,0,0,0,34.65,38,31.47,31.47,0,0,1,62.94,37.74Z" transform="translate(-8.04 -7)"/><path class="cls-4" d="M34.26,41.39a32.91,32.91,0,0,0,4.24-1.1,27.38,27.38,0,0,0,9.35-5.24,17.55,17.55,0,0,0,5.77,5.72,25.9,25.9,0,0,0,8,3.27,10.83,10.83,0,0,0,1.3-6.29A31.47,31.47,0,0,0,34.65,38,9.83,9.83,0,0,0,34.26,41.39Z" transform="translate(-8.04 -7)"/><path class="cls-3" d="M28.73,43.72C30,37.39,39,33.77,48,33.64V18.92a18.69,18.69,0,0,0-6.07.83C37.6,21.08,28.43,33,21.41,51h9.14C29.4,47,28.24,46.23,28.73,43.72Z" transform="translate(-8.04 -7)"/><path class="cls-2" d="M67.34,43c0.55,2.8-1.28,4-2.67,8h9.56c-2.32-5-4.79-11.68-6.73-15.44,0,0-7.34-13.89-13.24-15.75A21.91,21.91,0,0,0,48,18.93h0V33.64C55,33.51,66.14,36.91,67.34,43Z" transform="translate(-8.04 -7)"/><path class="cls-7" d="M49,61.86a1.52,1.52,0,0,1-2.15,0,1.22,1.22,0,0,1,0-1.72,1,1,0,0,1,1.38,0,0.78,0.78,0,0,1,0,1.1,0.62,0.62,0,0,1-.88,0,0.5,0.5,0,0,1,0-.71" transform="translate(-8.04 -7)"/></svg>