<svg id="Calque_1" data-name="Calque 1" xmlns="http://www.w3.org/2000/svg" xmlns:xlink="http://www.w3.org/1999/xlink" viewBox="0 0 79.68 79.68"><defs><style>.cls-1{fill:url(#Dégradé_sans_nom_403);}.cls-2{fill:#212121;}.cls-3{fill:#cecece;}.cls-4{fill:#7c7e7f;}.cls-5{fill:#49494a;}.cls-6{fill:#fff;}</style><linearGradient id="Dégradé_sans_nom_403" y1="39.84" x2="79.68" y2="39.84" gradientUnits="userSpaceOnUse"><stop offset="0" stop-color="#ededed"/><stop offset="1" stop-color="#f7f7f7"/></linearGradient></defs><title>IconVader</title><rect class="cls-1" width="79.68" height="79.68" rx="7.41" ry="7.41"/><rect class="cls-2" x="21.66" y="11.92" width="36.39" height="54.77" rx="16.6" ry="16.6"/><ellipse class="cls-2" cx="39.77" cy="59.78" rx="14.97" ry="7.98"/><path class="cls-3" d="M47.29,43.38a9,9,0,0,0-2.74-2.31c-0.61-.33-4.07-2.2-7-0.51a5.37,5.37,0,0,0-2.42,3.13,5,5,0,0,0,.31,3.44c1.93,3.26,10.22,3.08,11.89-.31A4.47,4.47,0,0,0,47.29,43.38Z" transform="translate(-9.04 -6.79)"/><path class="cls-3" d="M50.64,43.38a9,9,0,0,1,2.74-2.31c0.61-.33,4.07-2.2,7-0.51a5.37,5.37,0,0,1,2.42,3.13,5,5,0,0,1-.31,3.44c-1.93,3.26-10.22,3.08-11.89-.31A4.47,4.47,0,0,1,50.64,43.38Z" transform="translate(-9.04 -6.79)"/><rect class="cls-2" x="37.37" y="11.92" width="4.71" height="31.2"/><polygon class="cls-2" points="13.86 53.99 21.74 39.67 23.95 42.69 23.43 54.73 13.86 53.99"/><path class="cls-4" d="M47,39.08V18.75s-5.92.32-9.73,3c-5.78,4.14-8.22,12.09-6.55,20.26C30.4,43.2,29.83,45,29,47.1c-1.21,3.08-2.14,4.53-3.81,8.25-0.57,1.26-1.39,3.12-2.28,5.43A57.53,57.53,0,0,0,29.9,50c1.33-2.9,1.91-4.61,1.91-4.61a23.89,23.89,0,0,1,1.46-4.14,11.67,11.67,0,0,1,3.4-3.54C39.38,36.1,44,36.75,47,39.08Z" transform="translate(-9.04 -6.79)"/><polygon class="cls-2" points="66.02 53.99 56.08 55.05 57.65 39.32 66.02 53.99"/><path class="cls-5" d="M51,39.08V18.75a18.05,18.05,0,0,1,8.84,2.39C66,25,68.77,33.27,67.24,42.05c0.32,1.15.89,2.93,1.72,5,1.21,3.08,2.13,4.53,3.81,8.25,0.57,1.26,1.38,3.12,2.28,5.43a57.53,57.53,0,0,1-7-10.75c-1.33-2.9-1.91-4.61-1.91-4.61a23.88,23.88,0,0,0-1.46-4.14,11.48,11.48,0,0,0-3.37-3.54C58.6,36.1,56,36.75,51,39.08Z" transform="translate(-9.04 -6.79)"/><path class="cls-2" d="M75.41,60.77L51,60.81V69c1-.08,4.19-0.45,8.67-1.17,7.75-1.25,15.22-2.6,15.82-5.87A2.66,2.66,0,0,0,75.41,60.77Z" transform="translate(-9.04 -6.79)"/><path class="cls-2" d="M22.58,60.74l24.42,0V69c0-.08-4.11-0.45-8.58-1.17C24.54,65.59,23,63.27,22.67,62A3.44,3.44,0,0,1,22.58,60.74Z" transform="translate(-9.04 -6.79)"/><path class="cls-2" d="M22.6,60.87" transform="translate(-9.04 -6.79)"/><path class="cls-6" d="M39,41.17a5.23,5.23,0,0,0-3,2.72,0.29,0.29,0,0,1-.34.16h0a0.25,0.25,0,0,1-.18-0.32,5.51,5.51,0,0,1,2.88-3,0.73,0.73,0,0,1,.67.11h0C39.22,40.94,39.22,41.11,39,41.17Z" transform="translate(-9.04 -6.79)"/><path class="cls-6" d="M57.77,40.74A6.37,6.37,0,0,0,54,41.93a0.28,0.28,0,0,1-.37,0h0a0.25,0.25,0,0,1,0-.36,6.87,6.87,0,0,1,4-1.31,0.37,0.37,0,0,1,.37.27h0A0.25,0.25,0,0,1,57.77,40.74Z" transform="translate(-9.04 -6.79)"/><path class="cls-6" d="M53.34,42.39A2.91,2.91,0,0,0,52.23,44a0.21,0.21,0,0,1-.21.15h0A0.19,0.19,0,0,1,51.83,44a3,3,0,0,1,.68-1.88,0.61,0.61,0,0,1,.57,0h0C53.33,42.18,53.44,42.32,53.34,42.39Z" transform="translate(-9.04 -6.79)"/><rect class="cls-4" x="34.05" y="54.22" width="1.39" height="3.64"/><rect class="cls-4" x="36.41" y="50.58" width="1.39" height="7.29"/><rect class="cls-5" x="39.85" y="47.19" width="0.69" height="10.68"/><rect class="cls-4" x="39.16" y="47.19" width="0.69" height="10.68"/><rect class="cls-5" x="41.9" y="50.58" width="1.39" height="7.29"/><rect class="cls-5" x="44.27" y="54.22" width="1.39" height="3.64"/></svg>