<svg id="Calque_1" data-name="Calque 1" xmlns="http://www.w3.org/2000/svg" viewBox="0 0 149.57 75.74"><defs><style>.cls-1{font-size:17.08px;font-family:Lato;}.cls-1,.cls-3{fill:#303030;}.cls-2{letter-spacing:-1px;}</style></defs><title>Fleche</title><text class="cls-1" transform="translate(0 70.76)"><tspan class="cls-2">W</tspan><tspan x="16.99" y="0">orks </tspan><tspan x="54.22" y="0">e</tspan><tspan x="63.13" y="0">v</tspan><tspan x="71.96" y="0">erywhe</tspan><tspan x="129.3" y="0">r</tspan><tspan x="135.53" y="0">e!</tspan></text><path class="cls-3" d="M123.88,21.65c-21.52-3.72-36.16,17.86-24.73,36.48,0.69,1.14.77,2.46,0,3h0c-0.75.49-2.15-.17-3-1.49-12.91-21,3.63-45.42,27.95-41.22,1.52,0.26,2.66,1.32,2.48,2.2h0C126.46,21.46,125.2,21.88,123.88,21.65Z" transform="translate(-11.7 -12.2)"/><path class="cls-3" d="M115.1,28.33a20.07,20.07,0,0,1,9.2-9.2,1.6,1.6,0,0,1,2.27.69h0a1.72,1.72,0,0,1-.92,2.06,17,17,0,0,0-7.8,7.8,1.72,1.72,0,0,1-2.06.92h0A1.6,1.6,0,0,1,115.1,28.33Z" transform="translate(-11.7 -12.2)"/><path class="cls-3" d="M115.21,12.26a20.07,20.07,0,0,1,11,6.93,1.6,1.6,0,0,1-.17,2.36h0a1.72,1.72,0,0,1-2.22-.44,17,17,0,0,0-9.33-5.88,1.72,1.72,0,0,1-1.36-1.81h0A1.6,1.6,0,0,1,115.21,12.26Z" transform="translate(-11.7 -12.2)"/></svg>