<svg id="Calque_1" data-name="Calque 1" xmlns="http://www.w3.org/2000/svg" xmlns:xlink="http://www.w3.org/1999/xlink" viewBox="0 0 65.98 48.25"><defs><style>.cls-1{fill:none;}.cls-2{clip-path:url(#clip-path);}.cls-3{clip-path:url(#clip-path-2);}.cls-4{fill:#d8d1c5;}.cls-5{fill:#aba89f;}.cls-6{fill:#acaba1;}.cls-7{fill:#9e3227;}.cls-8{fill:#e75043;}</style><clipPath id="clip-path" transform="translate(-10.1 -20.14)"><rect class="cls-1" x="-0.59" y="0.58" width="87.37" height="87.37" transform="translate(-1.75 86.76) rotate(-89.23)"/></clipPath><clipPath id="clip-path-2" transform="translate(-10.1 -20.14)"><rect class="cls-1" x="-0.59" y="0.58" width="87.37" height="87.37" transform="translate(-1.75 86.76) rotate(-89.23)"/></clipPath></defs><title>IconGmail</title><g class="cls-2"><g class="cls-3"><rect class="cls-4" x="19.35" y="11.54" width="47.49" height="65.46" rx="4.29" ry="4.29" transform="translate(-11.85 66.62) rotate(-89.23)"/><path class="cls-5" d="M76.06,26.58L75.56,64.16a4.29,4.29,0,0,1-4.35,4.23L66,68.32,42.32,50.53Z" transform="translate(-10.1 -20.14)"/><polygon class="cls-6" points="10.31 47.57 65.94 8.07 65.96 6.43 8.07 47.54 10.31 47.57"/><path class="cls-7" d="M76.08,25.25L75.56,64.16a4.22,4.22,0,0,1-.19,1.21,4.29,4.29,0,0,1-4.16,3l-3.17,0L68.66,23l0.21-.15,2.79-2h0.19a4.29,4.29,0,0,1,4.23,4.35" transform="translate(-10.1 -20.14)"/><path class="cls-8" d="M71.85,20.91H71.66l-2.79,2L68.66,23,43.36,41,18.11,22l-2.5-1.88H15a4.29,4.29,0,0,0-4.35,4.23l0,2.33L10.1,63.28a4.21,4.21,0,0,0,.16,1.21,4.29,4.29,0,0,0,4.07,3.13l3.17,0L18,32.24,36.3,46l6,4.52,1.11,0.83,7.06-5,18-12.79,0.21-.15L76,28.22l0-3a4.29,4.29,0,0,0-4.23-4.35" transform="translate(-10.1 -20.14)"/></g></g></svg>