<?xml version="1.0" encoding="utf-8"?>
<!-- Generator: Adobe Illustrator 19.1.0, SVG Export Plug-In . SVG Version: 6.00 Build 0)  -->
<svg version="1.1" id="Calque_1" xmlns="http://www.w3.org/2000/svg" xmlns:xlink="http://www.w3.org/1999/xlink" x="0px" y="0px"
	 viewBox="0 0 195 72" style="enable-background:new 0 0 195 72;" xml:space="preserve">
<style type="text/css">
	.st0{fill:#FFFFFF;}
	.st1{font-family:'Lato-Heavy';}
	.st2{font-size:52.2382px;}
</style>
<g>
	<g>
		<g>
			<path class="st0" d="M25.9,25.6c-1.5-0.6-3.2-1-4.9-1c-3.4,0-5.8,1-8.6,3.5c-0.6,0.5-1.4,0.8-2.3,0.8c-2,0-3.6-1.6-3.6-3.5
				c0-0.9,0.4-1.8,1-2.4c0,0,0,0,0-0.1c0.3-0.3,0.5-0.7,0.5-1.2c0-0.9-0.8-1.7-1.8-1.7c-0.4,0-0.8,0.1-1.1,0.4
				c-0.1,0.1-0.3,0.3-0.4,0.4c-2,2.1-3.2,5-3.2,8.1c0,5,3.1,9.3,7.6,11.2v0c1.5,0.6,3.1,0.9,4.8,0.9c4.3,0,8.2-2.2,10.4-5.5
				c0.1-0.1,0.1-0.2,0.2-0.3c1.1-1.6,3-2.6,5.2-2.6c1.1,0,2.1,0.3,3,0.7C31.8,29.8,29.2,27,25.9,25.6z"/>
			<path class="st0" d="M33.3,25.6c1.5-0.6,3.2-1,4.9-1c3.4,0,5.8,1,8.6,3.5c0.6,0.5,1.4,0.8,2.3,0.8c2,0,3.6-1.6,3.6-3.5
				c0-0.9-0.4-1.8-1-2.4c0,0,0,0,0-0.1c-0.3-0.3-0.5-0.7-0.5-1.2c0-0.9,0.8-1.7,1.8-1.7c0.4,0,0.8,0.1,1.1,0.4
				c0.1,0.1,0.3,0.3,0.4,0.4c2,2.1,3.2,5,3.2,8.1c0,5-3.1,9.3-7.6,11.2v0c-1.5,0.6-3.1,0.9-4.8,0.9c-4.3,0-8.2-2.2-10.4-5.5
				c-0.1-0.1-0.1-0.2-0.2-0.3c-1.1-1.6-3-2.6-5.2-2.6c-1.1,0-2.1,0.3-3,0.7C27.5,29.8,30,27,33.3,25.6z"/>
		</g>
		<g>
			<circle class="st0" cx="29.5" cy="47.1" r="5.9"/>
			<path class="st0" d="M29.7,55.4l4-4.1h-8.4l4,4.1C29.5,55.5,29.6,55.5,29.7,55.4z"/>
		</g>
	</g>
	<text transform="matrix(1 0 0 1 65.9523 52.6839)" class="st0 st1 st2">stash</text>
</g>
</svg>
