<?xml version="1.0" encoding="utf-8"?>
<!-- Generator: Adobe Illustrator 19.1.0, SVG Export Plug-In . SVG Version: 6.00 Build 0)  -->
<svg version="1.1" id="Calque_1" xmlns="http://www.w3.org/2000/svg" xmlns:xlink="http://www.w3.org/1999/xlink" x="0px" y="0px"
	 viewBox="0 0 464 240" style="enable-background:new 0 0 464 240;" xml:space="preserve">
<style type="text/css">
	.st0{fill:#12202D;}
	.st1{fill:#573D82;}
	.st2{fill:#FFFFFF;}
	.st3{fill:#453068;}
	.st4{fill:#3FBA91;}
	.st5{fill:#675470;}
	.st6{fill:#4A4687;}
	.st7{fill:#FF3E88;}
	.st8{fill:#ECF0F1;}
	.st9{fill:#8977A7;}
	.st10{fill:#6FCBDC;}
	.st11{fill:#FFC586;}
	.st12{fill:none;stroke:#DFDFDF;stroke-width:1.2739;stroke-miterlimit:10;}
	.st13{fill:#F3F3F3;}
	.st14{fill:#DFDFDF;}
	.st15{fill:#DCDCDC;}
	.st16{fill:#21444C;}
	.st17{fill:#D8D8D8;}
</style>
<g>
	<g>
		<g>
			<g>
				<g>
					<g>
						<path class="st0" d="M452.8,24.5c0-3.7-3-6.8-6.8-6.8H18.5c-3.7,0-6.8,3-6.8,6.8V240h441.1V24.5z"/>
					</g>
					<g>
						<g>
							<rect x="54.7" y="43.9" class="st1" width="80.6" height="196.1"/>
							<rect x="135.3" y="44.3" class="st2" width="301.6" height="195.7"/>
							<rect x="27.7" y="43.9" class="st3" width="26.9" height="196.1"/>
							<path class="st4" d="M46.5,65H35.9c-1.5,0-2.7-1.2-2.7-2.7V51.7c0-1.5,1.2-2.7,2.7-2.7h10.7c1.5,0,2.7,1.2,2.7,2.7v10.7
								C49.2,63.8,48,65,46.5,65z"/>
							<path class="st5" d="M46.5,86.8H35.9c-1.5,0-2.7-1.2-2.7-2.7V73.5c0-1.5,1.2-2.7,2.7-2.7h10.7c1.5,0,2.7,1.2,2.7,2.7v10.7
								C49.2,85.6,48,86.8,46.5,86.8z"/>
							<path class="st6" d="M46.5,108.6H35.9c-1.5,0-2.7-1.2-2.7-2.7V95.3c0-1.5,1.2-2.7,2.7-2.7h10.7c1.5,0,2.7,1.2,2.7,2.7v10.7
								C49.2,107.4,48,108.6,46.5,108.6z"/>
							<path class="st7" d="M126.5,61.3h-4.2c-1.4,0-2.6-1.2-2.6-2.6v-0.1c0-1.4,1.2-2.6,2.6-2.6h4.2c1.4,0,2.6,1.2,2.6,2.6v0.1
								C129,60.1,127.9,61.3,126.5,61.3z"/>
							<path class="st8" d="M111.8,60.2h-49c-0.1,0-0.1-0.1-0.1-0.1v-2.9c0-0.1,0.1-0.1,0.1-0.1h49c0.1,0,0.1,0.1,0.1,0.1v2.9
								C112,60.1,111.9,60.2,111.8,60.2z"/>
							<path class="st8" d="M91.6,73.2H62.8c-0.1,0-0.1,0-0.1-0.1v-2.9c0-0.1,0-0.1,0.1-0.1h28.8c0.1,0,0.1,0,0.1,0.1v2.9
								C91.7,73.2,91.7,73.2,91.6,73.2z"/>
							<path class="st8" d="M102.4,86.2H62.8c-0.1,0-0.1-0.1-0.1-0.1v-2.9c0-0.1,0.1-0.1,0.1-0.1h39.6c0.1,0,0.1,0.1,0.1,0.1v2.9
								C102.5,86.1,102.5,86.2,102.4,86.2z"/>
							<path class="st9" d="M110.2,99.2H62.8c-0.1,0-0.1-0.1-0.1-0.1v-2.9c0-0.1,0.1-0.1,0.1-0.1h47.4c0.1,0,0.1,0.1,0.1,0.1v2.9
								C110.3,99.1,110.3,99.2,110.2,99.2z"/>
							<path class="st9" d="M91.1,112.2H62.8c-0.1,0-0.1,0-0.1-0.1v-2.9c0-0.1,0-0.1,0.1-0.1h28.3c0.1,0,0.1,0,0.1,0.1v2.9
								C91.2,112.2,91.2,112.2,91.1,112.2z"/>
							<path class="st9" d="M82,125.2H62.8c0,0-0.1,0-0.1-0.1v-3c0,0,0-0.1,0.1-0.1H82c0,0,0.1,0,0.1,0.1L82,125.2
								C82.1,125.2,82.1,125.2,82,125.2z"/>
							<path class="st9" d="M102.4,138.2H62.8c-0.1,0-0.1-0.1-0.1-0.1v-2.9c0-0.1,0.1-0.1,0.1-0.1h39.6c0.1,0,0.1,0.1,0.1,0.1v2.9
								C102.5,138.2,102.5,138.2,102.4,138.2z"/>
							<path class="st9" d="M110.2,151.2H62.8c-0.1,0-0.1-0.1-0.1-0.1v-2.9c0-0.1,0.1-0.1,0.1-0.1h47.4c0.1,0,0.1,0.1,0.1,0.1v2.9
								C110.3,151.2,110.3,151.2,110.2,151.2z"/>
							<path class="st9" d="M91.1,164.2H62.8c-0.1,0-0.1,0-0.1-0.1v-2.9c0-0.1,0-0.1,0.1-0.1h28.3c0.1,0,0.1,0,0.1,0.1v2.9
								C91.2,164.2,91.2,164.2,91.1,164.2z"/>
							<path class="st9" d="M82,177.2H62.8c0,0-0.1,0-0.1-0.1v-3c0,0,0-0.1,0.1-0.1H82c0,0,0.1,0,0.1,0.1L82,177.2
								C82.1,177.2,82.1,177.2,82,177.2z"/>
							<path class="st9" d="M102.4,190.2H62.8c-0.1,0-0.1-0.1-0.1-0.1v-2.9c0-0.1,0.1-0.1,0.1-0.1h39.6c0.1,0,0.1,0.1,0.1,0.1v2.9
								C102.5,190.2,102.5,190.2,102.4,190.2z"/>
							<path class="st4" d="M169,78.5h-15.7c-2.2,0-3.9-1.8-3.9-3.9V58.9c0-2.2,1.8-3.9,3.9-3.9H169c2.2,0,3.9,1.8,3.9,3.9v15.7
								C172.9,76.8,171.2,78.5,169,78.5z"/>
							<path class="st10" d="M169,229.8h-15.7c-2.2,0-3.9-1.8-3.9-3.9v-15.7c0-2.2,1.8-3.9,3.9-3.9H169c2.2,0,3.9,1.8,3.9,3.9v15.7
								C172.9,228,171.2,229.8,169,229.8z"/>
							<path class="st10" d="M345.5,144h-11.8c-1.6,0-3-1.3-3-3v-11.8c0-1.6,1.3-3,3-3h11.8c1.6,0,3,1.3,3,3v11.8
								C348.5,142.7,347.2,144,345.5,144z"/>
							<path class="st11" d="M345.5,170h-11.8c-1.6,0-3-1.3-3-3v-11.8c0-1.6,1.3-3,3-3h11.8c1.6,0,3,1.3,3,3V167
								C348.5,168.6,347.2,170,345.5,170z"/>
							<path class="st7" d="M345.5,195.9h-11.8c-1.6,0-3-1.3-3-3v-11.8c0-1.6,1.3-3,3-3h11.8c1.6,0,3,1.3,3,3V193
								C348.5,194.6,347.2,195.9,345.5,195.9z"/>
							<path class="st12" d="M379.2,57.5h-46.7c-2.1,0-3.8-1.7-3.8-3.8v0c0-2.1,1.7-3.8,3.8-3.8h46.7c2.1,0,3.8,1.7,3.8,3.8v0
								C383,55.8,381.3,57.5,379.2,57.5z"/>
							<path class="st12" d="M392.4,57.6h-1.7c-2.2,0-3.9-1.8-3.9-3.9v0c0-2.2,1.8-3.9,3.9-3.9h1.7c2.2,0,3.9,1.8,3.9,3.9v0
								C396.3,55.8,394.5,57.6,392.4,57.6z"/>
							<path class="st12" d="M406.8,57.7h-1.7c-2.2,0-3.9-1.8-3.9-3.9v0c0-2.2,1.8-3.9,3.9-3.9h1.7c2.2,0,3.9,1.8,3.9,3.9v0
								C410.8,55.9,409,57.7,406.8,57.7z"/>
							<path class="st12" d="M419.9,57.6h-1.7c-2.2,0-3.9-1.8-3.9-3.9v0c0-2.2,1.8-3.9,3.9-3.9h1.7c2.2,0,3.9,1.8,3.9,3.9v0
								C423.9,55.8,422.1,57.6,419.9,57.6z"/>
							<path class="st13" d="M423.3,116.3h-92c-0.3,0-0.5-0.2-0.5-0.5V66.6c0-0.3,0.2-0.5,0.5-0.5h92c0.3,0,0.5,0.2,0.5,0.5v49.2
								C423.9,116,423.6,116.3,423.3,116.3z"/>
							<path class="st13" d="M304.9,190.2H184.6c-0.4,0-0.8-0.3-0.8-0.8v-75.6c0-0.4,0.3-0.8,0.8-0.8h120.3c0.4,0,0.8,0.3,0.8,0.8
								v75.6C305.7,189.9,305.3,190.2,304.9,190.2z"/>
							<path class="st14" d="M230.1,59.9h-45.9c-0.1,0-0.1-0.1-0.1-0.1v-2.1c0-0.1,0.1-0.1,0.1-0.1h45.9c0.1,0,0.1,0.1,0.1,0.1v2.1
								C230.2,59.9,230.2,59.9,230.1,59.9z"/>
							<path class="st14" d="M305.3,68.7H184.2c-0.1,0-0.2-0.1-0.2-0.2v-1.9c0-0.1,0.1-0.2,0.2-0.2h121.1c0.1,0,0.2,0.1,0.2,0.2v1.9
								C305.5,68.6,305.4,68.7,305.3,68.7z"/>
							<path class="st14" d="M298.1,77.5H184.2c-0.1,0-0.2-0.1-0.2-0.2v-1.9c0-0.1,0.1-0.2,0.2-0.2h113.9c0.1,0,0.2,0.1,0.2,0.2v1.9
								C298.3,77.4,298.2,77.5,298.1,77.5z"/>
							<path class="st14" d="M279.9,86.3h-95.7c-0.1,0-0.2-0.1-0.2-0.2v-2c0-0.1,0.1-0.2,0.2-0.2h95.7c0.1,0,0.2,0.1,0.2,0.2v2
								C280.1,86.2,280,86.3,279.9,86.3z"/>
							<path class="st14" d="M291.2,95.1H184.2c-0.1,0-0.2-0.1-0.2-0.2v-2c0-0.1,0.1-0.2,0.2-0.2h106.9c0.1,0,0.2,0.1,0.2,0.2v2
								C291.3,95,291.3,95.1,291.2,95.1z"/>
							<path class="st14" d="M289.9,103.9H184.2c-0.1,0-0.2-0.1-0.2-0.2v-2c0-0.1,0.1-0.2,0.2-0.2h105.7c0.1,0,0.2,0.1,0.2,0.2v2
								C290.1,103.8,290,103.9,289.9,103.9z"/>
							<path class="st14" d="M229.9,210.6H184c-0.1,0-0.1-0.1-0.1-0.1v-2.1c0-0.1,0.1-0.1,0.1-0.1h45.9c0.1,0,0.1,0.1,0.1,0.1v2.1
								C230.1,210.5,230,210.6,229.9,210.6z"/>
							<path class="st14" d="M305.5,219.1H184.1c-0.1,0-0.2-0.1-0.2-0.2V217c0-0.1,0.1-0.2,0.2-0.2h121.4c0.1,0,0.2,0.1,0.2,0.2v1.9
								C305.7,219,305.6,219.1,305.5,219.1z"/>
							<path class="st14" d="M299.7,227.6H184.1c-0.1,0-0.2-0.1-0.2-0.2v-1.9c0-0.1,0.1-0.2,0.2-0.2h115.6c0.1,0,0.2,0.1,0.2,0.2
								v1.9C299.8,227.6,299.8,227.6,299.7,227.6z"/>
							<path class="st15" d="M420.6,131.1h-66.2c-0.1,0-0.1-0.1-0.1-0.1v-2c0-0.1,0.1-0.1,0.1-0.1h66.2c0.1,0,0.1,0.1,0.1,0.1v2
								C420.7,131,420.7,131.1,420.6,131.1z"/>
							<path class="st15" d="M389.7,136.8h-35.4c-0.1,0-0.1,0-0.1-0.1v-2.1c0-0.1,0-0.1,0.1-0.1h35.4c0.1,0,0.1,0,0.1,0.1v2.1
								C389.8,136.8,389.8,136.8,389.7,136.8z"/>
							<path class="st15" d="M406.2,142.6h-51.8c-0.1,0-0.1-0.1-0.1-0.1v-2.1c0-0.1,0.1-0.1,0.1-0.1h51.8c0.1,0,0.1,0.1,0.1,0.1v2.1
								C406.3,142.5,406.3,142.6,406.2,142.6z"/>
							<path class="st15" d="M420.6,157.3h-66.2c-0.1,0-0.1-0.1-0.1-0.1v-2c0-0.1,0.1-0.1,0.1-0.1h66.2c0.1,0,0.1,0.1,0.1,0.1v2
								C420.7,157.3,420.7,157.3,420.6,157.3z"/>
							<path class="st15" d="M389.7,163.1h-35.4c-0.1,0-0.1,0-0.1-0.1v-2.1c0-0.1,0-0.1,0.1-0.1h35.4c0.1,0,0.1,0,0.1,0.1v2.1
								C389.8,163,389.8,163.1,389.7,163.1z"/>
							<path class="st15" d="M406.2,168.9h-51.8c-0.1,0-0.1-0.1-0.1-0.1v-2.1c0-0.1,0.1-0.1,0.1-0.1h51.8c0.1,0,0.1,0.1,0.1,0.1v2.1
								C406.3,168.8,406.3,168.9,406.2,168.9z"/>
							<path class="st15" d="M420.6,182.8h-66.2c-0.1,0-0.1-0.1-0.1-0.1v-2c0-0.1,0.1-0.1,0.1-0.1h66.2c0.1,0,0.1,0.1,0.1,0.1v2
								C420.7,182.7,420.7,182.8,420.6,182.8z"/>
							<path class="st15" d="M389.7,188.6h-35.4c-0.1,0-0.1,0-0.1-0.1v-2.1c0-0.1,0-0.1,0.1-0.1h35.4c0.1,0,0.1,0,0.1,0.1v2.1
								C389.8,188.5,389.8,188.6,389.7,188.6z"/>
							<path class="st15" d="M406.2,194.3h-51.8c-0.1,0-0.1-0.1-0.1-0.1v-2.1c0-0.1,0.1-0.1,0.1-0.1h51.8c0.1,0,0.1,0.1,0.1,0.1v2.1
								C406.3,194.3,406.3,194.3,406.2,194.3z"/>
							<rect x="321.7" y="44.3" class="st16" width="2.1" height="195.7"/>
						</g>
						<rect x="27.7" y="34.1" class="st17" width="409.2" height="9.8"/>
					</g>
				</g>
			</g>
		</g>
	</g>
</g>
</svg>
